<?xml version="1.0" standalone="no"?>
<!DOCTYPE svg PUBLIC "-//W3C//DTD SVG 1.1//EN" "http://www.w3.org/Graphics/SVG/1.1/DTD/svg11.dtd" >
<svg>
<metadata>
Created by FontForge 20120731 at Sat Jul  2 07:04:26 2016
 By ,,,
Copyright (c) 2013 by Paulo R. All rights reserved.
</metadata>
<defs>
<font id="EssenceSansLight" horiz-adv-x="445" >
  <font-face 
    font-family="Essence Sans"
    font-weight="300"
    font-stretch="normal"
    units-per-em="1000"
    panose-1="2 0 5 3 0 0 0 2 0 3"
    ascent="750"
    descent="-250"
    x-height="385"
    cap-height="750"
    bbox="-139 -337 1221 881"
    underline-thickness="50"
    underline-position="-50"
    unicode-range="U+0020-FB02"
  />
<missing-glyph horiz-adv-x="477" 
d="M447 0h-417l2 3v747h415v-750zM152 80h174l-87 202zM367 186v395l-85 -197zM112 578v-389l83 195zM239 485l79 185h-158z" />
    <glyph glyph-name="fi" unicode="fi" horiz-adv-x="351" 
d="M297 365h-172v-365h-20v365h-75v20h75v172q0 40 15 75t41 61.5t61 41.5t75 15v-20q-36 0 -67 -13.5t-54.5 -37t-37 -55t-13.5 -67.5v-172h192v-385h-20v365zM307 429l14 -14l-14 -14l-14 14z" />
    <glyph glyph-name="fl" unicode="fl" horiz-adv-x="367" 
d="M297 730q-36 0 -67 -13.5t-54.5 -37t-37 -55t-13.5 -67.5v-172h75v-20h-75v-365h-20v365h-75v20h75v172q0 40 15 75t41 61.5t61 41.5t75 15h40v-750h-20v730h-20v0z" />
    <glyph glyph-name="ellipsis" unicode="&#x2e;&#x2e;&#x2e;" horiz-adv-x="280" 
d="M30 40h40v-40h-40v40zM120 40h40v-40h-40v40zM210 40h40v-40h-40v40z" />
    <glyph glyph-name="perthousand" unicode="&#x30;&#x2f;&#x30;&#x30;" horiz-adv-x="1245" 
d="M425 192q0 40 15 75t41 61.5t61 41.5t75 15t75 -15t61.5 -41.5t41.5 -61.5t15 -75t-15 -75t-41.5 -61t-61.5 -41t-75 -15t-75 15t-61 41t-41 61t-15 75zM415 558q0 -40 -15 -75t-41 -61.5t-61 -41.5t-75 -15t-75 15t-61.5 41.5t-41.5 61.5t-15 75t15 75t41.5 61t61.5 41
t75 15t75 -15t61 -41t41 -61t15 -75zM830 192q0 40 15 75t41 61.5t61 41.5t75 15t75 -15t61.5 -41.5t41.5 -61.5t15 -75t-15 -75t-41.5 -61t-61.5 -41t-75 -15t-75 15t-61 41t-41 61t-15 75zM850 192q0 -36 13.5 -67t37 -54.5t54.5 -37t67 -13.5t67.5 13.5t55 37t37 54.5
t13.5 67t-13.5 67.5t-37 55t-55 37t-67.5 13.5t-67 -13.5t-54.5 -37t-37 -55t-13.5 -67.5zM445 192q0 -36 13.5 -67t37 -54.5t54.5 -37t67 -13.5t67.5 13.5t55 37t37 54.5t13.5 67t-13.5 67.5t-37 55t-55 37t-67.5 13.5t-67 -13.5t-54.5 -37t-37 -55t-13.5 -67.5zM395 558
q0 36 -13.5 67t-37 54.5t-54.5 37t-67 13.5t-67.5 -13.5t-55 -37t-37 -54.5t-13.5 -67t13.5 -67.5t37 -55t55 -37t67.5 -13.5t67 13.5t54.5 37t37 55t13.5 67.5zM330 0h-20l199 750h21z" />
    <glyph glyph-name="OE" unicode="OE" horiz-adv-x="1190" 
d="M1160 20v-20h-400v253q-19 -55 -54 -101.5t-81.5 -80t-102.5 -52.5t-117 -19q-78 0 -146 29.5t-119 80.5t-80.5 119t-29.5 146t29.5 146t80.5 119t119 80.5t146 29.5q61 0 117 -19t102.5 -52.5t81.5 -80.5t54 -102v254h400v-20h-380v-345h360v-20h-360v-345h380zM50 375
q0 -74 28 -138.5t76 -112.5t112.5 -76t138.5 -28q73 0 138 28t113 76t76 112.5t28 138.5q0 73 -28 138t-76 113t-113 76t-138 28q-74 0 -138.5 -28t-112.5 -76t-76 -113t-28 -138z" />
    <glyph glyph-name="oe" unicode="oe" horiz-adv-x="762" 
d="M732 321l-259 -258q25 -23 56.5 -33.5t63.5 -10t62.5 13.5t54.5 37l14 -14q-28 -29 -63.5 -43t-72 -14t-72.5 14.5t-64 42.5q-33 33 -47 76q-19 -58 -68.5 -95t-114.5 -37q-40 0 -75 15t-61 41t-41 61t-15 75t15 75t41 61.5t61 41.5t75 15q65 0 114.5 -37.5t68.5 -95.5
q14 43 47 76q28 28 64 42.5t72.5 14.5t72 -14.5t63.5 -42.5zM50 192q0 -36 13.5 -67t37 -54.5t54.5 -37t67 -13.5t67.5 13.5t55 37t37 54.5t13.5 67t-13.5 67.5t-37 55t-55 37t-67.5 13.5t-67 -13.5t-54.5 -37t-37 -55t-13.5 -67.5zM466 314q-24 -24 -37 -54.5t-14 -62.5
t10 -63.5t34 -56.5l244 244q-26 23 -57 33.5t-63 9.5t-62.5 -13.5t-54.5 -36.5z" />
    <glyph glyph-name="AE" unicode="AE" horiz-adv-x="940" 
d="M910 20v-20h-400v190h-382l-77 -190h-21l303 749l177 -438v439h400v-20h-380v-345h360v-20h-360v-345h380zM136 210h374v49l-177 436z" />
    <glyph glyph-name="ae" unicode="ae" horiz-adv-x="762" 
d="M732 321l-259 -258q25 -23 56.5 -33.5t63.5 -10t62.5 13.5t54.5 37l14 -14q-28 -29 -63.5 -43t-72 -14t-72.5 14.5t-64 42.5q-24 23 -37 52v-108h-20v106q-24 -48 -70 -77t-103 -29q-40 0 -75 15t-61 41t-41 61t-15 75t15 75t41 61.5t61 41.5t75 15q57 0 103 -29.5
t70 -77.5v107h20v-110q14 30 37 53q28 28 64 42.5t72.5 14.5t72 -14.5t63.5 -42.5zM50 192q0 -36 13.5 -67t37 -54.5t54.5 -37t67 -13.5t67.5 13.5t55 37t37 54.5t13.5 67q-2 37 -16 68.5t-37.5 55t-54.5 36.5t-65 13q-36 0 -67 -13.5t-54.5 -37t-37 -55t-13.5 -67.5z
M466 314q-24 -24 -37 -54.5t-14 -62.5t10 -63.5t34 -56.5l244 244q-26 23 -57 33.5t-63 9.5t-62.5 -13.5t-54.5 -36.5z" />
    <glyph glyph-name="trademark" unicode="&#x28;tm&#x29;" horiz-adv-x="1251" 
d="M480 730h-215v-730h-20v730h-215v20h450l370 -371l371 371v-750h-20v702l-351 -352l-350 350v-700h-20v730z" />
    <glyph glyph-name="copyright" unicode="&#x28;C&#x29;" horiz-adv-x="720" 
d="M238 497q-25 -26 -37.5 -57.5t-12.5 -64.5t12.5 -65t37.5 -57t57 -38t65 -13t65 12.5t57 38.5l14 -14q-28 -29 -63.5 -43t-72 -14t-72.5 14.5t-64 42.5t-42 63.5t-14 72.5t14 72t42 64q28 28 64 42.5t72.5 14.5t72 -14.5t63.5 -42.5l-14 -14q-25 25 -57 38t-65 13
t-65 -13t-57 -38zM30 375q0 68 26 128t71 105t105 71t128 26t128 -26t105 -71t71 -105t26 -128t-26 -128t-71 -105t-105 -71t-128 -26t-128 26t-105 71t-71 105t-26 128zM50 375q0 -64 24.5 -120.5t66.5 -98.5t98.5 -66.5t120.5 -24.5t120.5 24.5t98.5 66.5t66.5 98.5
t24.5 120.5t-24.5 120.5t-66.5 98.5t-98.5 66.5t-120.5 24.5t-120.5 -24.5t-98.5 -66.5t-66.5 -98.5t-24.5 -120.5z" />
    <glyph glyph-name="registered" unicode="&#x28;R&#x29;" horiz-adv-x="720" 
d="M30 375q0 68 26 128t71 105t105 71t128 26t128 -26t105 -71t71 -105t26 -128t-26 -128t-71 -105t-105 -71t-128 -26t-128 26t-105 71t-71 105t-26 128zM50 375q0 -64 24.5 -120.5t66.5 -98.5t98.5 -66.5t120.5 -24.5t120.5 24.5t98.5 66.5t66.5 98.5t24.5 120.5
t-24.5 120.5t-66.5 98.5t-98.5 66.5t-120.5 24.5t-120.5 -24.5t-98.5 -66.5t-66.5 -98.5t-24.5 -120.5zM260 568h121q25 0 47.5 -9.5t39 -26t26 -39t9.5 -47.5q0 -23 -8 -43.5t-22.5 -36.5t-34 -26.5t-41.5 -13.5l98 -144h-25l-96 143h-94v-143h-20v386zM280 548v-203h101
q21 0 39.5 8t32.5 21.5t22 32t8 39.5t-8 39.5t-22 32.5t-32.5 22t-39.5 8h-101z" />
    <glyph glyph-name=".notdef" horiz-adv-x="477" 
d="M447 0h-417l2 3v747h415v-750zM152 80h174l-87 202zM367 186v395l-85 -197zM112 578v-389l83 195zM239 485l79 185h-158z" />
    <glyph glyph-name="A" unicode="A" horiz-adv-x="666" 
d="M538 190h-410l-77 -190h-21l303 749l303 -749h-21zM136 210h394l-197 485z" />
    <glyph glyph-name="B" unicode="B" horiz-adv-x="403" 
d="M30 750h150q40 0 75 -15t61.5 -41.5t41.5 -61.5t15 -75q0 -32 -10 -61t-27 -52.5t-41.5 -41.5t-52.5 -27q28 -10 52.5 -27.5t41.5 -41.5t27 -53t10 -61q0 -40 -15 -75t-41.5 -61t-61.5 -41t-75 -15h-150v750zM50 385h130q36 0 67.5 13.5t55 37t37 54.5t13.5 67
t-13.5 67.5t-37 55t-55 37t-67.5 13.5h-130v-345zM50 20h130q36 0 67.5 13.5t55 37t37 54.5t13.5 67t-13.5 67.5t-37 55t-55 37t-67.5 13.5h-130v-345z" />
    <glyph glyph-name="C" unicode="C" horiz-adv-x="701" 
d="M155 626q-52 -52 -78 -117.5t-26 -133.5t26 -133.5t78 -117.5t117.5 -78t133.5 -26t133.5 26t117.5 78l14 -14q-55 -55 -124 -82.5t-141 -27.5t-141 27.5t-124 82.5t-82.5 124t-27.5 141t27.5 141t82.5 124t124 82.5t141 27.5t141 -27.5t124 -82.5l-14 -14
q-52 52 -117.5 78t-133.5 26t-133.5 -26t-117.5 -78z" />
    <glyph glyph-name="D" unicode="D" horiz-adv-x="585" 
d="M30 750h150q78 0 146 -29.5t119 -80.5t80.5 -119t29.5 -146t-29.5 -146t-80.5 -119t-119 -80.5t-146 -29.5h-150v750zM50 20h130q73 0 138 28t113 76t76 112.5t28 138.5q0 73 -28 138t-76 113t-113 76t-138 28h-130v-710z" />
    <glyph glyph-name="E" unicode="E" horiz-adv-x="460" 
d="M430 20v-20h-400v750h400v-20h-380v-345h360v-20h-360v-345h380z" />
    <glyph glyph-name="G" unicode="G" horiz-adv-x="811" 
d="M781 375q0 -72 -27.5 -141t-82.5 -124q-55 -56 -124 -83t-141 -27t-141 27t-124 83q-55 55 -82.5 124t-27.5 141t27.5 141t82.5 124t124 82.5t141 27.5t141 -27.5t124 -82.5l-14 -14q-52 52 -117.5 78t-133.5 26t-133.5 -26t-117.5 -78t-78 -117.5t-26 -133.5t26 -133.5
t78 -117.5q52 -53 117 -78.5t134 -25.5q68 0 133 25.5t118 78.5q50 50 76 112.5t28 128.5h-365v20h385v-10v0z" />
    <glyph glyph-name="F" unicode="F" horiz-adv-x="460" 
d="M50 0h-20v750h400v-20h-380v-345h360v-20h-360v-365z" />
    <glyph glyph-name="H" unicode="H" horiz-adv-x="510" 
d="M460 385v365h20v-750h-20v365h-410v-365h-20v750h20v-365h410z" />
    <glyph glyph-name="I" unicode="I" horiz-adv-x="80" 
d="M30 750h20v-750h-20v750z" />
    <glyph glyph-name="J" unicode="J" horiz-adv-x="253" 
d="M223 192q0 -40 -15 -75t-41.5 -61t-61.5 -41t-75 -15v20q36 0 67.5 13.5t55 37t37 54.5t13.5 67v558h20v-558v0z" />
    <glyph glyph-name="K" unicode="K" horiz-adv-x="485" 
d="M30 750h20v-375l375 375h30l-376 -375l375 -375h-28l-376 375v-375h-20v750z" />
    <glyph glyph-name="L" unicode="L" horiz-adv-x="460" 
d="M430 20v-20h-400v750h20v-730h380z" />
    <glyph glyph-name="O" unicode="O" horiz-adv-x="810" 
d="M30 375q0 78 29.5 146t80.5 119t119 80.5t146 29.5t146 -29.5t119 -80.5t80.5 -119t29.5 -146t-29.5 -146t-80.5 -119t-119 -80.5t-146 -29.5t-146 29.5t-119 80.5t-80.5 119t-29.5 146zM50 375q0 -74 28 -138.5t76 -112.5t112.5 -76t138.5 -28q73 0 138 28t113 76
t76 112.5t28 138.5q0 73 -28 138t-76 113t-113 76t-138 28q-74 0 -138.5 -28t-112.5 -76t-76 -113t-28 -138z" />
    <glyph glyph-name="M" unicode="M" horiz-adv-x="801" 
d="M30 750l370 -371l371 371v-750h-20v702l-351 -352l-350 350v-700h-20v750z" />
    <glyph glyph-name="N" unicode="N" horiz-adv-x="643" 
d="M613 0l-563 692v-692h-20v750l563 -693v693h20v-750z" />
    <glyph glyph-name="P" unicode="P" horiz-adv-x="435" 
d="M405 525q0 -47 -17.5 -87.5t-48.5 -71.5t-72 -48.5t-87 -17.5h-130v-300h-20v750h150q46 0 87 -17.5t72 -48.5t48.5 -72t17.5 -87zM50 320h130q42 0 79.5 16t65.5 44t44 65.5t16 79.5t-16 79.5t-44 65.5t-65.5 44t-79.5 16h-130v-410z" />
    <glyph glyph-name="Q" unicode="Q" horiz-adv-x="810" 
d="M780 375q0 -57 -16 -109t-45 -96.5t-69.5 -79t-89.5 -56.5l65 -79v-32l-84 102q-32 -12 -66 -18.5t-70 -6.5q-78 0 -146 29.5t-119 80.5t-80.5 119t-29.5 146t29.5 146t80.5 119t119 80.5t146 29.5t146 -29.5t119 -80.5t80.5 -119t29.5 -146zM50 375q0 -74 28 -138.5
t76 -112.5t112.5 -76t138.5 -28q62 0 123 22l-81 99v32l100 -123q47 21 86 53.5t67.5 74.5t44 92t15.5 105q0 73 -28 138t-76 113t-113 76t-138 28q-74 0 -138.5 -28t-112.5 -76t-76 -113t-28 -138z" />
    <glyph glyph-name="R" unicode="R" horiz-adv-x="487" 
d="M457 525q0 -40 -13 -76t-36.5 -65t-55.5 -49t-69 -29l163 -306h-23l-161 302q-8 -2 -15 -2h-15h-182v-300h-20v750h202q46 0 87 -17.5t72 -48.5t48.5 -72t17.5 -87zM50 320h182q42 0 79.5 16t65.5 44t44 65.5t16 79.5t-16 79.5t-44 65.5t-65.5 44t-79.5 16h-182v-410z
" />
    <glyph glyph-name="S" unicode="S" horiz-adv-x="393" 
d="M126 404q-35 20 -57.5 50.5t-32 66t-5 73.5t24.5 73q20 34 50.5 57t66 32.5t73 5t72.5 -24.5l45 -26v-23l-55 32q-31 18 -64.5 22t-65.5 -4.5t-59.5 -29t-45.5 -51.5q-17 -30 -21.5 -63t3 -64.5t26.5 -58.5t48 -46l138 -79q34 -20 57 -50.5t32.5 -66t5 -73t-24.5 -72.5
t-50.5 -58t-66 -32.5t-73.5 -5t-72 24.5l-45 25v23l55 -31q31 -18 64.5 -22t65.5 5t59.5 29.5t45.5 51.5q17 30 21.5 63t-3 64t-26.5 58t-48 46l-138 79v0z" />
    <glyph glyph-name="U" unicode="U" horiz-adv-x="510" 
d="M460 750h20v-525q0 -47 -17.5 -87.5t-48.5 -71.5t-72 -48.5t-87 -17.5q-47 0 -87.5 17.5t-71.5 48.5t-48.5 71.5t-17.5 87.5v525h20v-525q0 -42 16 -79.5t44 -65.5t65.5 -44t79.5 -16t79.5 16t65.5 44t44 65.5t16 79.5v525z" />
    <glyph glyph-name="V" unicode="V" horiz-adv-x="666" 
d="M333 54l282 695h21l-303 -749l-303 749h21z" />
    <glyph glyph-name="W" unicode="W" horiz-adv-x="935" 
d="M467 385l148 364h21l-158 -390l124 -305l282 695h21l-303 -749l-135 332l-134 -332l-303 749h21l282 -695l124 305l-158 390h21z" />
    <glyph glyph-name="X" unicode="X" horiz-adv-x="516" 
d="M30 750h23l205 -355l205 355h23l-217 -375l217 -375h-23l-205 355l-205 -355h-23l216 375z" />
    <glyph glyph-name="Z" unicode="Z" horiz-adv-x="385" 
d="M326 730h-296v20h325l-295 -730h295v-20h-325z" />
    <glyph glyph-name="a" unicode="a" 
d="M395 106q-24 -48 -70 -77t-103 -29q-40 0 -75 15t-61 41t-41 61t-15 75t15 75t41 61.5t61 41.5t75 15q57 0 103 -29.5t70 -77.5v107h20v-193v-192h-20v106zM50 192q0 -36 13.5 -67t37 -54.5t54.5 -37t67 -13.5t67.5 13.5t55 37t37 54.5t13.5 67q-2 37 -16 68.5t-37.5 55
t-54.5 36.5t-65 13q-36 0 -67 -13.5t-54.5 -37t-37 -55t-13.5 -67.5z" />
    <glyph glyph-name="b" unicode="b" 
d="M50 0h-20v750h20v-472q24 48 70 77.5t103 29.5q40 0 75 -15t61 -41.5t41 -61.5t15 -75t-15 -75t-41 -61t-61 -41t-75 -15q-57 0 -103 29t-70 77v-106zM395 192q0 36 -13.5 67.5t-37 55t-54.5 37t-67 13.5q-35 0 -65.5 -13t-54 -36.5t-38 -55t-15.5 -68.5q0 -36 13.5 -67
t37 -54.5t55 -37t67.5 -13.5t67 13.5t54.5 37t37 54.5t13.5 67z" />
    <glyph glyph-name="d" unicode="d" 
d="M395 106q-24 -48 -70 -77t-103 -29q-40 0 -75 15t-61 41t-41 61t-15 75t15 75t41 61.5t61 41.5t75 15q57 0 103 -29.5t70 -77.5v472h20v-750h-20v106zM50 192q0 -36 13.5 -67t37 -54.5t54.5 -37t67 -13.5t67.5 13.5t55 37t37 54.5t13.5 67q-2 37 -16 68.5t-37.5 55
t-54.5 36.5t-65 13q-36 0 -67 -13.5t-54.5 -37t-37 -55t-13.5 -67.5z" />
    <glyph glyph-name="c" unicode="c" horiz-adv-x="389" 
d="M101 314q-25 -26 -37.5 -57.5t-12.5 -64.5t12.5 -65t37.5 -57t57 -38t65 -13t65 12.5t57 38.5l14 -14q-28 -29 -63.5 -43t-72 -14t-72.5 14.5t-64 42.5t-42 63.5t-14 72.5t14 72t42 64q28 28 64 42.5t72.5 14.5t72 -14.5t63.5 -42.5l-14 -14q-25 25 -57 38t-65 13
t-65 -13t-57 -38z" />
    <glyph glyph-name="e" unicode="e" horiz-adv-x="397" 
d="M367 321l-259 -258q25 -23 56.5 -33.5t63.5 -10t62.5 13.5t54.5 37l14 -14q-28 -29 -63.5 -43t-72 -14t-72.5 14.5t-64 42.5t-42 63.5t-14 72.5t14 72t42 64q28 28 64 42.5t72.5 14.5t72 -14.5t63.5 -42.5zM101 314q-24 -24 -37 -54.5t-14 -62.5t10 -63.5t34 -56.5
l244 244q-26 23 -57 33.5t-63 9.5t-62.5 -13.5t-54.5 -36.5z" />
    <glyph glyph-name="f" unicode="f" horiz-adv-x="327" 
d="M30 385h75v172q0 40 15 75t41 61.5t61 41.5t75 15v-20q-36 0 -67 -13.5t-54.5 -37t-37 -55t-13.5 -67.5v-172h75v-20h-75v-365h-20v365h-75v20z" />
    <glyph glyph-name="g" unicode="g" 
d="M100 -180q56 -50 122 -50q36 0 67.5 13.5t55 37t37 54.5t13.5 67v164q-24 -48 -70 -77t-103 -29q-40 0 -75 15t-61 41t-41 61t-15 75t15 75t41 61.5t61 41.5t75 15q57 0 103 -29.5t70 -77.5v107h20v-443q0 -40 -15 -75t-41.5 -61t-61.5 -41t-75 -15q-39 0 -74 14.5
t-62 40.5zM50 192q0 -36 13.5 -67t37 -54.5t54.5 -37t67 -13.5t67.5 13.5t55 37t37 54.5t13.5 67q-2 37 -16 68.5t-37.5 55t-54.5 36.5t-65 13q-36 0 -67 -13.5t-54.5 -37t-37 -55t-13.5 -67.5z" />
    <glyph glyph-name="h" unicode="h" 
d="M50 0h-20v750h20v-472q23 48 69 77.5t103 29.5q40 0 75 -15t61.5 -41.5t41.5 -61.5t15 -75v-192h-20v192q0 36 -13.5 67.5t-37 55t-55 37t-67.5 13.5t-67 -13.5t-54.5 -37t-37 -55t-13.5 -67.5v-192z" />
    <glyph glyph-name="i" unicode="i" horiz-adv-x="88" 
d="M34 385h20v-385h-20v385zM44 429l14 -14l-14 -14l-14 14z" />
    <glyph glyph-name="k" unicode="k" horiz-adv-x="301" 
d="M50 0h-20v750h20v-558l193 193h28l-193 -193l192 -192h-28l-192 192v-192z" />
    <glyph glyph-name="l" unicode="l" horiz-adv-x="80" 
d="M30 750h20v-750h-20v750z" />
    <glyph glyph-name="m" unicode="m" horiz-adv-x="810" 
d="M760 192q0 36 -13.5 67.5t-37 55t-55 37t-67.5 13.5t-67 -13.5t-54.5 -37t-37 -55t-13.5 -67.5v-192h-20v192q0 36 -13.5 67.5t-37 55t-55 37t-67.5 13.5q-35 0 -66 -13t-54 -35.5t-37 -53t-15 -64.5v-199h-20v192v8v185h20v-107q23 48 69 77.5t103 29.5q32 0 61 -10
t53 -27t41.5 -41.5t27.5 -52.5q9 28 27 52.5t41.5 41.5t52.5 27t61 10q40 0 75 -15t61.5 -41.5t41.5 -61.5t15 -75v-192h-20v192z" />
    <glyph glyph-name="n" unicode="n" 
d="M395 192q0 36 -13.5 67.5t-37 55t-55 37t-67.5 13.5t-67 -13.5t-54.5 -37t-37 -55t-13.5 -67.5v-192h-20v385h20v-107q23 48 69 77.5t103 29.5q40 0 75 -15t61.5 -41.5t41.5 -61.5t15 -75v-192h-20v192z" />
    <glyph glyph-name="o" unicode="o" 
d="M30 192q0 40 15 75t41 61.5t61 41.5t75 15t75 -15t61.5 -41.5t41.5 -61.5t15 -75t-15 -75t-41.5 -61t-61.5 -41t-75 -15t-75 15t-61 41t-41 61t-15 75zM50 192q0 -36 13.5 -67t37 -54.5t54.5 -37t67 -13.5t67.5 13.5t55 37t37 54.5t13.5 67t-13.5 67.5t-37 55t-55 37
t-67.5 13.5t-67 -13.5t-54.5 -37t-37 -55t-13.5 -67.5z" />
    <glyph glyph-name="p" unicode="p" 
d="M30 200v185h20v-107q23 48 69 77.5t103 29.5q40 0 75 -15t61.5 -41.5t41.5 -61.5t15 -75t-15 -75t-41.5 -61t-61.5 -41t-75 -15q-57 0 -103 28.5t-69 76.5v-355h-20v442v8zM50 192q0 -36 13.5 -67t37 -54.5t54.5 -37t67 -13.5t67.5 13.5t55 37t37 54.5t13.5 67
t-13.5 67.5t-37 55t-55 37t-67.5 13.5q-35 0 -66 -13t-54 -35.5t-37 -53t-15 -64.5v-7z" />
    <glyph glyph-name="q" unicode="q" 
d="M415 192v-442h-20v355q-23 -48 -69 -76.5t-103 -28.5q-40 0 -75 15t-61.5 41t-41.5 61t-15 75t15 75t41.5 61.5t61.5 41.5t75 15q57 0 103 -29.5t69 -77.5v107h20v-185v-8zM395 192v7q-1 34 -15 64.5t-37.5 53t-54 35.5t-65.5 13q-36 0 -67.5 -13.5t-55 -37t-37 -55
t-13.5 -67.5t13.5 -67t37 -54.5t55 -37t67.5 -13.5t67 13.5t54.5 37t37 54.5t13.5 67z" />
    <glyph glyph-name="r" unicode="r" horiz-adv-x="252" 
d="M30 385h20v-107q23 48 69 77.5t103 29.5v-20q-36 0 -67 -13.5t-54.5 -37t-37 -55t-13.5 -67.5v-192h-20v385z" />
    <glyph glyph-name="s" unicode="s" horiz-adv-x="239" 
d="M158 182q18 -11 30 -27t17 -34.5t2.5 -38.5t-12.5 -38t-26 -30t-34.5 -17t-38.5 -3t-38 13l-27 15v23l37 -20q29 -17 61 -8.5t49 37.5t9 60t-36 48l-69 41q-18 10 -30.5 26t-17.5 35t-2.5 39t13.5 38q10 18 26 30t34.5 17t38.5 2.5t38 -13.5l27 -15v-23l-37 21
q-15 9 -30.5 11t-30.5 -2t-28 -13.5t-21 -24.5q-17 -30 -8.5 -61.5t38.5 -48.5l66 -39v0z" />
    <glyph glyph-name="t" unicode="t" horiz-adv-x="260" 
d="M230 535v-20h-90v-515h-20v515h-90v20h90v215h20v-215h90z" />
    <glyph glyph-name="u" unicode="u" 
d="M50 193q0 -36 13.5 -67.5t37 -55t55 -37t67.5 -13.5t67 13.5t54.5 37t37 55t13.5 67.5v192h20v-385h-20v107q-23 -48 -69 -77.5t-103 -29.5q-40 0 -75 15t-61.5 41.5t-41.5 61.5t-15 75v192h20v-192z" />
    <glyph glyph-name="v" unicode="v" horiz-adv-x="446" 
d="M223 45l170 340h23l-193 -385l-193 385h22z" />
    <glyph glyph-name="w" unicode="w" horiz-adv-x="628" 
d="M313 226l80 159h23l-91 -182l80 -158l170 340h23l-193 -385l-91 181l-91 -181l-193 385h22l171 -340l79 159l-90 181h22z" />
    <glyph glyph-name="x" unicode="x" horiz-adv-x="409" 
d="M30 385h26l149 -178l148 178h26l-161 -193l160 -192h-26l-147 176l-148 -176h-26l161 192z" />
    <glyph glyph-name="y" unicode="y" 
d="M100 -180q56 -50 122 -50q36 0 67.5 13.5t55 37t37 54.5t13.5 67v164q-24 -48 -70 -77t-103 -29q-40 0 -75 15t-61 41t-41 61t-15 75v193h20v-193q0 -36 13.5 -67t37 -54.5t54.5 -37t67 -13.5t67.5 13.5t55 37t37 54.5t13.5 67v193h20v-443q0 -40 -15 -75t-41.5 -61
t-61.5 -41t-75 -15q-39 0 -74 14.5t-62 40.5z" />
    <glyph glyph-name="z" unicode="z" horiz-adv-x="275" 
d="M212 365h-182v20h215l-183 -365h183v-20h-215z" />
    <glyph glyph-name="exclam" unicode="!" horiz-adv-x="88" 
d="M34 750h20v-706h-20v706zM30 14l14 14l14 -14l-14 -14z" />
    <glyph glyph-name="zero" unicode="0" 
d="M222 750q40 0 75 -15t61.5 -41t41.5 -61t15 -75v-366q0 -40 -15 -75t-41.5 -61t-61.5 -41t-75 -15t-75 15t-61 41t-41 61t-15 75v366q0 40 15 75t41 61t61 41t75 15zM395 558q0 36 -13.5 67t-37 54.5t-55 37t-67.5 13.5t-67 -13.5t-54.5 -37t-37 -54.5t-13.5 -67v-366
q0 -36 13.5 -67t37 -54.5t54.5 -37t67 -13.5t67.5 13.5t55 37t37 54.5t13.5 67v366z" />
    <glyph glyph-name="one" unicode="1" horiz-adv-x="155" 
d="M105 0v702l-75 -75v28l95 95v-750h-20z" />
    <glyph glyph-name="two" unicode="2" horiz-adv-x="447" 
d="M67 668q23 33 55.5 53t68.5 26t73.5 -2t70.5 -31q33 -24 53 -56.5t26 -69t-2 -74t-32 -69.5l-304 -425h340v-20h-379l327 457q21 29 28 62.5t1 66t-23.5 61.5t-46.5 50t-62 28t-65.5 2t-62 -23t-50.5 -47t-28 -62.5t-2 -66.5t23 -62t47 -50l-12 -16q-33 23 -52.5 56
t-25.5 69t2 73.5t32 69.5z" />
    <glyph glyph-name="four" unicode="4" horiz-adv-x="501" 
d="M451 255h-421l327 457q13 19 20 38h22q-9 -27 -26 -50l-304 -425h382v475h20v-750h-20v255z" />
    <glyph glyph-name="ampersand" unicode="&#x26;" horiz-adv-x="518" 
d="M415 192q0 -43 -17 -80l90 -112h-26l-75 93q-25 -42 -68.5 -67.5t-96.5 -25.5q-40 0 -75 15t-61 41t-41 61t-15 75q0 65 36.5 114t94.5 69l-49 62q-25 31 -35.5 67.5t-6.5 73.5t21.5 70.5t49.5 59.5q31 25 68 35t74 6t70.5 -22t59.5 -49l-17 -13q-22 28 -52.5 44
t-63.5 19.5t-66 -5.5t-60 -31q-28 -22 -44 -52t-19.5 -63t5.5 -66t32 -61l255 -320q12 28 12 62v92q0 40 27 69t66 32v-21q-31 -3 -52 -25.5t-21 -54.5v-92zM222 20q49 0 89 24.5t63 65.5l-199 248q-27 -8 -50 -23.5t-39.5 -37.5t-26 -48.5t-9.5 -56.5q0 -36 13.5 -67
t37 -54.5t54.5 -37t67 -13.5z" />
    <glyph glyph-name="five" unicode="5" horiz-adv-x="555" 
d="M45 186q11 -36 32.5 -66.5t51 -52.5t65.5 -34.5t76 -12.5q49 0 91.5 18.5t74.5 50.5t50.5 74.5t18.5 91.5t-18.5 91.5t-50.5 74.5t-74.5 50.5t-91.5 18.5q-62 0 -112.5 -28.5t-82.5 -75.5h-24l208 364h266v-20h-255l-156 -273q32 25 71.5 39t84.5 14q53 0 99.5 -20
t81 -54.5t54.5 -81t20 -99.5t-20 -99.5t-54.5 -81t-81 -54.5t-99.5 -20q-42 0 -79.5 12.5t-69 35t-55 54t-36.5 68.5z" />
    <glyph glyph-name="six" unicode="6" horiz-adv-x="572" 
d="M335 750h25l-204 -276q32 19 68 28t72.5 7.5t73 -13.5t68.5 -36q42 -32 67.5 -76t33 -92t-4.5 -97.5t-43 -91.5q-32 -43 -75.5 -68.5t-92 -32.5t-97.5 4.5t-92 42.5q-42 32 -67.5 75.5t-33 92t4 97.5t43.5 91zM97 394q-29 -39 -39.5 -84.5t-4 -90t30 -85t62.5 -69.5
t84.5 -39.5t90.5 -3.5t85 30.5t69 62.5t39.5 84.5t4 90t-30 85t-62.5 69.5q-38 28 -82.5 38.5t-88.5 4t-85 -29.5t-73 -63z" />
    <glyph glyph-name="seven" unicode="7" horiz-adv-x="422" 
d="M30 750h362l-340 -750h-22l331 730h-331v20z" />
    <glyph glyph-name="nine" unicode="9" horiz-adv-x="572" 
d="M237 -1h-25l204 276q-32 -19 -68 -28t-72.5 -7.5t-73 13.5t-68.5 36q-42 32 -67.5 76t-33 92t4 97.5t43.5 91.5q31 43 75 68.5t92.5 32.5t97.5 -4.5t92 -42.5q42 -32 67.5 -75.5t33 -92t-4.5 -97.5t-43 -91zM475 355q29 39 39.5 84.5t4 90t-30 85t-62.5 69.5
q-39 28 -84.5 39t-90.5 4t-85 -30.5t-69 -62.5t-39.5 -84.5t-4 -90t30 -85t62.5 -69.5q38 -28 82.5 -38.5t88.5 -4t85 29.5t73 63z" />
    <glyph glyph-name="Euro" unicode="&#x20ac;" horiz-adv-x="478" 
d="M30 430v20h89v108q0 40 15 75t41 61t61 41t75 15q41 0 72.5 -15t64.5 -41l-14 -15q-23 23 -55 37t-68 14t-67 -13.5t-54.5 -37t-37 -54.5t-13.5 -67v-108h183v-20h-183v-110h183v-20h-183v-108q0 -36 13.5 -67t37 -54.5t54.5 -37t67 -13.5t67.5 14t55.5 38l14 -16
q-26 -26 -61.5 -41t-75.5 -15t-75 15t-61 41t-41 61t-15 75v108h-89v20h89v110h-89z" />
    <glyph glyph-name="comma" unicode="," horiz-adv-x="142" 
d="M92 119h20l-63 -237l-19 5z" />
    <glyph glyph-name="period" unicode="." horiz-adv-x="100" 
d="M30 40h40v-40h-40v40z" />
    <glyph glyph-name="three" unicode="3" horiz-adv-x="510" 
d="M95 590q0 33 12.5 62t34.5 51t51 34.5t62 12.5t62 -12.5t51 -34.5t34.5 -51t12.5 -62q0 -51 -28 -91t-72 -58q36 -10 66 -30.5t52 -49t34.5 -63t12.5 -73.5q0 -47 -17.5 -87.5t-48.5 -71.5t-72 -48.5t-87 -17.5q-47 0 -87.5 17.5t-71.5 48.5t-48.5 71.5t-17.5 87.5h20
q0 -42 16 -79.5t44 -65.5t65.5 -44t79.5 -16t79.5 16t65.5 44t44 65.5t16 79.5t-16 79.5t-44 65.5t-65.5 44t-79.5 16v20h5q28 1 52.5 12.5t43 30.5t29 44t10.5 53q0 29 -11 54.5t-30 44.5t-44.5 30t-54.5 11t-54.5 -11t-44.5 -30t-30 -44.5t-11 -54.5h-20z" />
    <glyph glyph-name="eight" unicode="8" horiz-adv-x="510" 
d="M95 590q0 33 12.5 62t34.5 51t51 34.5t62 12.5t62 -12.5t51 -34.5t34.5 -51t12.5 -62q0 -51 -28 -91t-72 -58q36 -10 66 -30.5t52 -49t34.5 -63t12.5 -73.5q0 -47 -17.5 -87.5t-48.5 -71.5t-72 -48.5t-87 -17.5q-47 0 -87.5 17.5t-71.5 48.5t-48.5 71.5t-17.5 87.5
q0 39 12.5 73.5t34.5 63t52 49t66 30.5q-45 18 -72.5 58t-27.5 91zM50 225q0 -42 16 -79.5t44 -65.5t65.5 -44t79.5 -16t79.5 16t65.5 44t44 65.5t16 79.5t-16 79.5t-44 65.5t-65.5 44t-79.5 16q-44 -2 -81.5 -18.5t-65 -44t-43 -64t-15.5 -78.5zM115 590q0 -28 10.5 -53
t29.5 -44t44.5 -30.5t55.5 -12.5q30 1 55.5 12.5t44.5 30.5t29.5 44t10.5 53q0 29 -11 54.5t-30 44.5t-44.5 30t-54.5 11t-54.5 -11t-44.5 -30t-30 -44.5t-11 -54.5z" />
    <glyph glyph-name="quotesingle" unicode="'" horiz-adv-x="80" 
d="M50 600h-20v150h20v-150z" />
    <glyph glyph-name="quotedbl" unicode="&#x22;" horiz-adv-x="120" 
d="M50 600h-20v150h20v-150zM90 600h-20v150h20v-150z" />
    <glyph glyph-name="quoteleft" unicode="&#x2018;" horiz-adv-x="120" 
d="M51 600h-21l39 150h21z" />
    <glyph glyph-name="quoteright" unicode="&#x2019;" horiz-adv-x="120" 
d="M51 600h-21l39 150h21z" />
    <glyph glyph-name="quotedblleft" unicode="&#x201c;" horiz-adv-x="162" 
d="M51 600h-21l39 150h21zM93 600h-21l39 150h21z" />
    <glyph glyph-name="quotedblright" unicode="&#x201d;" horiz-adv-x="162" 
d="M51 600h-21l39 150h21zM93 600h-21l39 150h21z" />
    <glyph glyph-name="asterisk" unicode="*" horiz-adv-x="447" 
d="M213 304v242l-168 -168l-14 14l178 178l-179 178l14 14l169 -168v241h20v-241l170 170l14 -14l-180 -180l177 -178l-14 -14l-167 168v-242h-20z" />
    <glyph glyph-name="plus" unicode="+" 
d="M232 101h-20v182h-182v20h182v183h20v-183h183v-20h-183v-182z" />
    <glyph glyph-name="hyphen" unicode="-" horiz-adv-x="465" 
d="M30 283v20h405v-20h-405z" />
    <glyph glyph-name="minus" unicode="&#x2212;" 
d="M30 283v20h385v-20h-385z" />
    <glyph glyph-name="multiply" unicode="&#xd7;" horiz-adv-x="348" 
d="M317 115l-14 -14l-129 129l-129 -129l-14 14l129 129l-130 129l15 15l129 -130l129 130l15 -15l-130 -129z" />
    <glyph glyph-name="divide" unicode="&#xf7;" 
d="M415 303v-20h-385v20h385zM202 192h40v-40h-40v40zM202 436h40v-40h-40v40z" />
    <glyph glyph-name="numbersign" unicode="#" 
d="M169 385h20l-24 -90h170l24 90h20l-24 -90h60v-20h-66l-43 -163h89v-20h-95l-24 -92h-20l24 92h-169l-24 -92h-20l24 92h-61v20h66l44 163h-90v20h95zM329 275h-169l-44 -163h170z" />
    <glyph glyph-name="dollar" unicode="$" horiz-adv-x="393" 
d="M166 -13q-49 2 -91 26l-45 25v23l55 -31q31 -18 64.5 -22t65.5 5t59.5 29.5t45.5 51.5q17 30 21.5 63t-3 64t-26.5 58t-48 46l-138 79q-35 20 -57.5 50.5t-32 66t-5 73.5t24.5 73q19 33 47.5 55t62.5 33v95h20v-90q5 1 10 1.5t10 0.5v88h20v-87q48 0 92 -26l45 -26v-23
l-55 32q-31 18 -64.5 22t-65.5 -4.5t-59.5 -29t-45.5 -51.5q-17 -30 -21.5 -63t3 -64.5t26.5 -58.5t48 -46l138 -79q34 -20 57 -50.5t32.5 -66t5 -73t-24.5 -72.5q-20 -33 -48.5 -55.5t-62.5 -32.5v-96h-20v91q-11 -3 -20 -3v-88h-20v87z" />
    <glyph glyph-name="colon" unicode=":" horiz-adv-x="100" 
d="M30 40h40v-40h-40v40zM30 385h40v-40h-40v40z" />
    <glyph glyph-name="semicolon" unicode=";" horiz-adv-x="162" 
d="M92 385h40v-40h-40v40zM92 119h20l-63 -237l-19 5z" />
    <glyph glyph-name="equal" unicode="=" 
d="M30 364v20h385v-20h-385zM30 182v20h385v-20h-385z" />
    <glyph glyph-name="parenleft" unicode="(" horiz-adv-x="252" 
d="M50 93q0 -36 13.5 -67.5t37 -55t54.5 -37t67 -13.5v-20q-40 0 -75 15t-61 41.5t-41 61.5t-15 75v564q0 40 15 75t41 61.5t61 41.5t75 15v-20q-36 0 -67 -13.5t-54.5 -37t-37 -55t-13.5 -67.5v-564z" />
    <glyph glyph-name="braceleft" unicode="{" horiz-adv-x="333" 
d="M131 466q0 -30 -15.5 -54.5t-41.5 -36.5q26 -13 41.5 -37t15.5 -54v-191q0 -36 13.5 -67.5t37 -55t54.5 -37t67 -13.5v-20q-40 0 -75 15t-61 41.5t-41 61.5t-15 75v191q0 34 -23.5 57.5t-57.5 23.5v20q34 0 57.5 23.5t23.5 57.5v191q0 40 15 75t41 61.5t61 41.5t75 15
v-20q-36 0 -67 -13.5t-54.5 -37t-37 -55t-13.5 -67.5v-191z" />
    <glyph glyph-name="braceright" unicode="}" horiz-adv-x="333" 
d="M202 657q0 36 -13.5 67.5t-37 55t-54.5 37t-67 13.5v20q40 0 75 -15t61 -41.5t41 -61.5t15 -75v-191q0 -34 23.5 -57.5t57.5 -23.5v-20q-34 0 -57.5 -23.5t-23.5 -57.5v-191q0 -40 -15 -75t-41 -61.5t-61 -41.5t-75 -15v20q36 0 67 13.5t54.5 37t37 55t13.5 67.5v191
q0 30 15.5 54t41.5 37q-26 12 -41.5 36.5t-15.5 54.5v191z" />
    <glyph glyph-name="bar" unicode="|" horiz-adv-x="80" 
d="M30 850h20v-950h-20v950z" />
    <glyph glyph-name="caron" unicode="&#x2c7;" horiz-adv-x="199" 
d="M30 750h29l41 -41l41 41h28l-69 -70z" />
    <glyph glyph-name="slash" unicode="/" horiz-adv-x="333" 
d="M50 -100h-20l252 950h21z" />
    <glyph glyph-name="bracketleft" unicode="[" horiz-adv-x="252" 
d="M30 850h192v-20h-172v-910h172v-20h-192v950z" />
    <glyph glyph-name="underscore" unicode="_" horiz-adv-x="465" 
d="M30 -20v20h405v-20h-405z" />
    <glyph glyph-name="paragraph" unicode="&#xb6;" horiz-adv-x="525" 
d="M222 365q-40 0 -75 15t-61 41t-41 61t-15 75t15 75t41 61.5t61 41.5t75 15h273v-20h-80v-830h-20v830h-153v-830h-20v465z" />
    <glyph glyph-name="exclamdown" unicode="&#xa1;" horiz-adv-x="88" 
d="M34 369h20v-706h-20v706zM44 413l14 -14l-14 -14l-14 14z" />
    <glyph glyph-name="question" unicode="?" horiz-adv-x="470" 
d="M30 664q23 28 53 48t67 30q46 12 91 5.5t83.5 -28.5t67 -58t40.5 -82t5.5 -91.5t-28.5 -83.5t-58 -66.5t-82 -40.5q-33 -8 -49.5 -37t-7.5 -62l-20 -5q-5 20 -2 40t12.5 36.5t25.5 29t36 18.5q42 11 74.5 37t52.5 61t26 76t-5 83t-37 74.5t-61 52.5t-76 26t-83 -5
q-35 -9 -63 -28t-48 -45zM197 15q0 6 4.5 10.5t10.5 4.5t10.5 -4.5t4.5 -10.5t-4.5 -10.5t-10.5 -4.5t-10.5 4.5t-4.5 10.5z" />
    <glyph glyph-name="questiondown" unicode="&#xbf;" horiz-adv-x="319" 
d="M435 -164q-23 -28 -53 -48t-67 -30q-46 -12 -91.5 -5.5t-83.5 28.5t-66.5 58t-40.5 82t-5.5 91t28.5 83.5t58 67t82 40.5q33 8 49.5 37t7.5 62l20 5q5 -20 2 -40t-12.5 -36.5t-25.5 -29t-36 -18.5q-42 -11 -74.5 -37t-52.5 -61t-26 -76t5 -83t37 -74.5t61 -52.5t76 -26
t83 5q35 9 63 28t48 45zM268 485q0 -6 -4.5 -10.5t-10.5 -4.5t-10.5 4.5t-4.5 10.5t4.5 10.5t10.5 4.5t10.5 -4.5t4.5 -10.5z" />
    <glyph glyph-name="sterling" unicode="&#xa3;" horiz-adv-x="534" 
d="M119 255h-89v20h89v110h-89v20h89v152q0 40 15 75t41 61.5t61 41.5t75 15v-20q-36 0 -67 -13.5t-54.5 -37t-37 -55t-13.5 -67.5v-152h183v-20h-183v-110h183v-20h-183v-235h365v-20h-385v255z" />
    <glyph glyph-name="dieresis" unicode="&#xa8;" horiz-adv-x="150" 
d="M30 765q0 6 4.5 10.5t10.5 4.5t10.5 -4.5t4.5 -10.5t-4.5 -10.5t-10.5 -4.5t-10.5 4.5t-4.5 10.5zM90 765q0 6 4.5 10.5t10.5 4.5t10.5 -4.5t4.5 -10.5t-4.5 -10.5t-10.5 -4.5t-10.5 4.5t-4.5 10.5z" />
    <glyph glyph-name="Y" unicode="Y" horiz-adv-x="571" 
d="M275 317l-245 433h23l232 -408l232 408h24l-246 -433v-317h-20v317z" />
    <glyph glyph-name="grave" unicode="`" horiz-adv-x="262" 
d="M232 674l-202 54v22l202 -54v-22z" />
    <glyph glyph-name="tilde" unicode="&#x2dc;" horiz-adv-x="330" 
d="M46 697l-16 13q23 28 45.5 35.5t44 3.5t42.5 -14t41.5 -15t40.5 0t40 31l16 -13q-23 -29 -45.5 -36t-44 -3t-42.5 14t-41.5 15t-40.5 0t-40 -31z" />
    <glyph glyph-name="acute" unicode="&#xb4;" horiz-adv-x="262" 
d="M30 696l202 54v-22l-202 -54v22z" />
    <glyph glyph-name="section" unicode="&#xa7;" horiz-adv-x="446" 
d="M415 101q0 -40 -15 -75t-41 -61t-61 -41t-75 -15t-75 15t-61.5 41t-41.5 61t-15 75h20q0 -36 13.5 -67t37 -54.5t55 -37t67.5 -13.5t67 13.5t54.5 37t37 54.5t13.5 67q0 35 -13 66t-36.5 54.5t-55 37.5t-67.5 15q-21 0 -39.5 8t-32 21.5t-21.5 32t-8 39.5q0 28 14 51
t37 36q-31 8 -57 25.5t-45 42.5t-29.5 55t-10.5 64q0 40 15 75t41 61t61 41t75 15t75 -15t61.5 -41t41.5 -61t15 -75h-20q0 36 -13.5 67t-37 54.5t-55 37t-67.5 13.5t-67 -13.5t-54.5 -37t-37 -54.5t-13.5 -67q0 -35 13 -66.5t36.5 -54.5t55 -37t67.5 -15q21 0 39.5 -8
t32 -21.5t21.5 -32t8 -39.5q0 -29 -13.5 -51.5t-36.5 -36.5q31 -8 56.5 -25.5t44.5 -42t29.5 -55t10.5 -63.5zM304 375q0 34 -23.5 57.5t-57.5 23.5t-57.5 -23.5t-23.5 -57.5t23.5 -57.5t57.5 -23.5q35 1 58 24.5t23 56.5z" />
    <glyph glyph-name="cedilla" unicode="&#xb8;" horiz-adv-x="142" 
d="M92 119h20l-63 -237l-19 5z" />
    <glyph glyph-name="Ccedilla" unicode="&#xc7;" horiz-adv-x="701" 
d="M340 4q-55 10 -106 36t-93 69q-55 55 -82.5 124t-27.5 141t27.5 141t82.5 124t124 82.5t141 27.5t141 -27.5t124 -82.5l-14 -14q-52 52 -117.5 78t-133.5 26t-133.5 -26t-117.5 -78t-78 -117.5t-26 -133.5t26 -133.5t78 -117.5t117.5 -78t133.5 -26t133.5 26t117.5 78
l14 -14q-64 -65 -146 -91.5t-166 -16.5l-26 -101l-19 5z" />
    <glyph glyph-name="ccedilla" unicode="&#xe7;" horiz-adv-x="389" 
d="M184 3q-27 6 -51.5 19t-45.5 34q-28 28 -42 63.5t-14 72.5t14 72t42 64q28 28 64 42.5t72.5 14.5t72 -14.5t63.5 -42.5l-14 -14q-25 25 -57 38t-65 13t-65 -13t-57 -38q-25 -26 -37.5 -57.5t-12.5 -64.5t12.5 -65t37.5 -57t57 -38t65 -13t65 12.5t57 38.5l14 -14
q-32 -32 -73 -46t-83 -10l-26 -100l-19 5z" />
    <glyph glyph-name="ring" unicode="&#x2da;" horiz-adv-x="171" 
d="M30 694q0 23 16 39.5t39 16.5t39.5 -16.5t16.5 -39.5t-16.5 -39t-39.5 -16t-39 16t-16 39zM50 694q0 -15 10 -25t25 -10t25.5 10t10.5 25t-10.5 25.5t-25.5 10.5t-25 -10.5t-10 -25.5z" />
    <glyph glyph-name="Agrave" unicode="&#xc0;" horiz-adv-x="666" 
d="M538 190h-410l-77 -190h-21l303 749l303 -749h-21zM136 210h394l-197 485zM434 750l-202 54v22l202 -54v-22z" />
    <glyph glyph-name="Aacute" unicode="&#xc1;" horiz-adv-x="666" 
d="M538 190h-410l-77 -190h-21l303 749l303 -749h-21zM136 210h394l-197 485zM232 772l202 54v-22l-202 -54v22z" />
    <glyph glyph-name="Atilde" unicode="&#xc3;" horiz-adv-x="666" 
d="M538 190h-410l-77 -190h-21l303 749l303 -749h-21zM136 210h394l-197 485zM214 769l-16 13q23 28 45.5 35.5t44 3.5t42.5 -14t41.5 -15t40.5 0t40 31l16 -13q-23 -29 -45.5 -36t-44 -3t-42.5 14t-41.5 15t-40.5 0t-40 -31z" />
    <glyph glyph-name="Aring" unicode="&#xc5;" horiz-adv-x="666" 
d="M277 825q0 23 16 39.5t39 16.5t39.5 -16.5t16.5 -39.5t-16.5 -39t-39.5 -16t-39 16t-16 39zM297 825q0 -15 10 -25t25 -10t25.5 10t10.5 25t-10.5 25.5t-25.5 10.5t-25 -10.5t-10 -25.5zM538 190h-410l-77 -190h-21l303 749l303 -749h-21zM136 210h394l-197 485z" />
    <glyph glyph-name="Egrave" unicode="&#xc8;" horiz-adv-x="460" 
d="M331 770l-202 54v22l202 -54v-22zM50 20v345h360v20h-360v345h380v20h-400v-750h400v20h-380z" />
    <glyph glyph-name="Eacute" unicode="&#xc9;" horiz-adv-x="460" 
d="M129 792l202 54v-22l-202 -54v22zM430 20v-20h-400v750h400v-20h-380v-345h360v-20h-360v-345h380z" />
    <glyph glyph-name="Igrave" unicode="&#xcc;" horiz-adv-x="262" 
d="M121 750h20v-750h-20v750zM232 750l-202 54v22l202 -54v-22z" />
    <glyph glyph-name="Iacute" unicode="&#xcd;" horiz-adv-x="262" 
d="M121 750h20v-750h-20v750zM30 772l202 54v-22l-202 -54v22z" />
    <glyph glyph-name="Ntilde" unicode="&#xd1;" horiz-adv-x="643" 
d="M202 769l-16 13q23 28 45.5 35.5t44 3.5t42.5 -14t41.5 -15t40.5 0.5t40 30.5l16 -13q-23 -29 -45.5 -36t-44 -3t-42.5 14t-41.5 15t-40.5 -0.5t-40 -30.5zM613 750h-20v-693l-563 693v-750h20v692l563 -692v750z" />
    <glyph glyph-name="Ograve" unicode="&#xd2;" horiz-adv-x="810" 
d="M506 770l-202 54v22l202 -54v-22zM30 375q0 -78 29.5 -146t80.5 -119t119 -80.5t146 -29.5t146 29.5t119 80.5t80.5 119t29.5 146t-29.5 146t-80.5 119t-119 80.5t-146 29.5t-146 -29.5t-119 -80.5t-80.5 -119t-29.5 -146zM50 375q0 73 28 138t76 113t112.5 76t138.5 28
q73 0 138 -28t113 -76t76 -113t28 -138q0 -74 -28 -138.5t-76 -112.5t-113 -76t-138 -28q-74 0 -138.5 28t-112.5 76t-76 112.5t-28 138.5z" />
    <glyph glyph-name="Oacute" unicode="&#xd3;" horiz-adv-x="810" 
d="M304 792l202 54v-22l-202 -54v22zM30 375q0 78 29.5 146t80.5 119t119 80.5t146 29.5t146 -29.5t119 -80.5t80.5 -119t29.5 -146t-29.5 -146t-80.5 -119t-119 -80.5t-146 -29.5t-146 29.5t-119 80.5t-80.5 119t-29.5 146zM50 375q0 -74 28 -138.5t76 -112.5t112.5 -76
t138.5 -28q73 0 138 28t113 76t76 112.5t28 138.5q0 73 -28 138t-76 113t-113 76t-138 28q-74 0 -138.5 -28t-112.5 -76t-76 -113t-28 -138z" />
    <glyph glyph-name="Otilde" unicode="&#xd5;" horiz-adv-x="810" 
d="M286 769l-16 13q23 28 45.5 35.5t44 3.5t42.5 -14t41.5 -15t40.5 0.5t40 30.5l16 -13q-23 -29 -45.5 -36t-44 -3t-42.5 14t-41.5 15t-40.5 -0.5t-40 -30.5zM30 375q0 -78 29.5 -146t80.5 -119t119 -80.5t146 -29.5t146 29.5t119 80.5t80.5 119t29.5 146t-29.5 146
t-80.5 119t-119 80.5t-146 29.5t-146 -29.5t-119 -80.5t-80.5 -119t-29.5 -146zM50 375q0 73 28 138t76 113t112.5 76t138.5 28q73 0 138 -28t113 -76t76 -113t28 -138q0 -74 -28 -138.5t-76 -112.5t-113 -76t-138 -28q-74 0 -138.5 28t-112.5 76t-76 112.5t-28 138.5z" />
    <glyph glyph-name="Ugrave" unicode="&#xd9;" horiz-adv-x="510" 
d="M460 227q0 -42 -16 -79.5t-44 -65.5t-65.5 -44t-79.5 -16t-79.5 16t-65.5 44t-44 65.5t-16 79.5v525h-20v-525q0 -47 17.5 -87.5t48.5 -71.5t71.5 -48.5t87.5 -17.5q46 0 87 17.5t72 48.5t48.5 71.5t17.5 87.5v525h-20v-525zM356 770l-202 54v22l202 -54v-22z" />
    <glyph glyph-name="Uacute" unicode="&#xda;" horiz-adv-x="510" 
d="M154 792l202 54v-22l-202 -54v22zM460 750h20v-525q0 -47 -17.5 -87.5t-48.5 -71.5t-72 -48.5t-87 -17.5q-47 0 -87.5 17.5t-71.5 48.5t-48.5 71.5t-17.5 87.5v525h20v-525q0 -42 16 -79.5t44 -65.5t65.5 -44t79.5 -16t79.5 16t65.5 44t44 65.5t16 79.5v525z" />
    <glyph glyph-name="Yacute" unicode="&#xdd;" horiz-adv-x="571" 
d="M184 792l202 54v-22l-202 -54v22zM275 317l-245 433h23l232 -408l232 408h24l-246 -433v-317h-20v317z" />
    <glyph glyph-name="agrave" unicode="&#xe0;" 
d="M323 405l-202 54v22l202 -54v-22zM395 0h20v192v193h-20v-107q-24 48 -70 77.5t-103 29.5q-40 0 -75 -15t-61 -41.5t-41 -61.5t-15 -75t15 -75t41 -61t61 -41t75 -15q57 0 103 29t70 77v-106zM50 192q0 36 13.5 67.5t37 55t54.5 37t67 13.5q34 0 65 -13t54.5 -36.5
t37.5 -55t16 -68.5q0 -36 -13.5 -67t-37 -54.5t-55 -37t-67.5 -13.5t-67 13.5t-54.5 37t-37 54.5t-13.5 67z" />
    <glyph glyph-name="aacute" unicode="&#xe1;" 
d="M121 427l202 54v-22l-202 -54v22zM395 106q-24 -48 -70 -77t-103 -29q-40 0 -75 15t-61 41t-41 61t-15 75t15 75t41 61.5t61 41.5t75 15q57 0 103 -29.5t70 -77.5v107h20v-193v-192h-20v106zM50 192q0 -36 13.5 -67t37 -54.5t54.5 -37t67 -13.5t67.5 13.5t55 37t37 54.5
t13.5 67q-2 37 -16 68.5t-37.5 55t-54.5 36.5t-65 13q-36 0 -67 -13.5t-54.5 -37t-37 -55t-13.5 -67.5z" />
    <glyph glyph-name="atilde" unicode="&#xe3;" 
d="M103 404l-16 13q23 28 45.5 35.5t44 3.5t42.5 -14t41.5 -15t40.5 0t40 31l16 -13q-23 -29 -45.5 -36t-44 -3t-42.5 14t-41.5 15t-40.5 0t-40 -31zM395 0h20v192v193h-20v-107q-24 48 -70 77.5t-103 29.5q-40 0 -75 -15t-61 -41.5t-41 -61.5t-15 -75t15 -75t41 -61t61 -41
t75 -15q57 0 103 29t70 77v-106zM50 192q0 36 13.5 67.5t37 55t54.5 37t67 13.5q34 0 65 -13t54.5 -36.5t37.5 -55t16 -68.5q0 -36 -13.5 -67t-37 -54.5t-55 -37t-67.5 -13.5t-67 13.5t-54.5 37t-37 54.5t-13.5 67z" />
    <glyph glyph-name="aring" unicode="&#xe5;" 
d="M167 460q0 23 16 39.5t39 16.5t39.5 -16.5t16.5 -39.5t-16.5 -39t-39.5 -16t-39 16t-16 39zM187 460q0 -15 10 -25t25 -10t25.5 10t10.5 25t-10.5 25.5t-25.5 10.5t-25 -10.5t-10 -25.5zM395 106q-24 -48 -70 -77t-103 -29q-40 0 -75 15t-61 41t-41 61t-15 75t15 75
t41 61.5t61 41.5t75 15q57 0 103 -29.5t70 -77.5v107h20v-193v-192h-20v106zM50 192q0 -36 13.5 -67t37 -54.5t54.5 -37t67 -13.5t67.5 13.5t55 37t37 54.5t13.5 67q-2 37 -16 68.5t-37.5 55t-54.5 36.5t-65 13q-36 0 -67 -13.5t-54.5 -37t-37 -55t-13.5 -67.5z" />
    <glyph glyph-name="egrave" unicode="&#xe8;" horiz-adv-x="397" 
d="M299 405l-202 54v22l202 -54v-22zM359 328q-28 28 -63.5 42.5t-72 14.5t-72.5 -14.5t-64 -42.5q-28 -29 -42 -64t-14 -72t14 -72.5t42 -63.5t64 -42.5t72.5 -14.5t72 14t63.5 43l-14 14q-24 -24 -54.5 -37t-62.5 -13.5t-63.5 10t-56.5 33.5l259 258zM101 314
q24 24 54.5 36.5t62.5 13.5t63 -9.5t57 -33.5l-244 -244q-23 25 -34 56.5t-10 63.5t14 62.5t37 54.5z" />
    <glyph glyph-name="eacute" unicode="&#xe9;" horiz-adv-x="397" 
d="M97 427l202 54v-22l-202 -54v22zM367 321l-259 -258q25 -23 56.5 -33.5t63.5 -10t62.5 13.5t54.5 37l14 -14q-28 -29 -63.5 -43t-72 -14t-72.5 14.5t-64 42.5t-42 63.5t-14 72.5t14 72t42 64q28 28 64 42.5t72.5 14.5t72 -14.5t63.5 -42.5zM101 314q-24 -24 -37 -54.5
t-14 -62.5t10 -63.5t34 -56.5l244 244q-26 23 -57 33.5t-63 9.5t-62.5 -13.5t-54.5 -36.5z" />
    <glyph glyph-name="igrave" unicode="&#xec;" horiz-adv-x="262" 
d="M121 0h20v385h-20v-385zM232 385l-202 54v22l202 -54v-22z" />
    <glyph glyph-name="iacute" unicode="&#xed;" horiz-adv-x="262" 
d="M121 385h20v-385h-20v385zM30 407l202 54v-22l-202 -54v22z" />
    <glyph glyph-name="ntilde" unicode="&#xf1;" 
d="M103 405l-16 13q23 28 45.5 35.5t44 3.5t42.5 -14t41.5 -15t40.5 0t40 31l16 -13q-23 -29 -45.5 -36t-44 -3t-42.5 14t-41.5 15t-40.5 -0.5t-40 -30.5zM395 0h20v192q0 40 -15 75t-41.5 61.5t-61.5 41.5t-75 15q-57 0 -103 -29.5t-69 -77.5v107h-20v-385h20v192
q0 36 13.5 67.5t37 55t54.5 37t67 13.5t67.5 -13.5t55 -37t37 -55t13.5 -67.5v-192z" />
    <glyph glyph-name="ograve" unicode="&#xf2;" 
d="M323 405l-202 54v22l202 -54v-22zM30 192q0 -40 15 -75t41 -61t61 -41t75 -15t75 15t61.5 41t41.5 61t15 75t-15 75t-41.5 61.5t-61.5 41.5t-75 15t-75 -15t-61 -41.5t-41 -61.5t-15 -75zM50 192q0 36 13.5 67.5t37 55t54.5 37t67 13.5t67.5 -13.5t55 -37t37 -55
t13.5 -67.5t-13.5 -67t-37 -54.5t-55 -37t-67.5 -13.5t-67 13.5t-54.5 37t-37 54.5t-13.5 67z" />
    <glyph glyph-name="oacute" unicode="&#xf3;" 
d="M122 427l202 54v-22l-202 -54v22zM415 192q0 -40 -15 -75t-41 -61t-61 -41t-75 -15t-75 15t-61.5 41t-41.5 61t-15 75t15 75t41.5 61.5t61.5 41.5t75 15t75 -15t61 -41.5t41 -61.5t15 -75zM395 192q0 36 -13.5 67.5t-37 55t-54.5 37t-67 13.5t-67.5 -13.5t-55 -37
t-37 -55t-13.5 -67.5t13.5 -67t37 -54.5t55 -37t67.5 -13.5t67 13.5t54.5 37t37 54.5t13.5 67z" />
    <glyph glyph-name="otilde" unicode="&#xf5;" 
d="M30 192q0 -40 15 -75t41 -61t61 -41t75 -15t75 15t61.5 41t41.5 61t15 75t-15 75t-41.5 61.5t-61.5 41.5t-75 15t-75 -15t-61 -41.5t-41 -61.5t-15 -75zM50 192q0 36 13.5 67.5t37 55t54.5 37t67 13.5t67.5 -13.5t55 -37t37 -55t13.5 -67.5t-13.5 -67t-37 -54.5t-55 -37
t-67.5 -13.5t-67 13.5t-54.5 37t-37 54.5t-13.5 67zM103 405l-16 13q23 28 45.5 35.5t44 3.5t42.5 -14t41.5 -15t40.5 0t40 31l16 -13q-23 -29 -45.5 -36t-44 -3t-42.5 14t-41.5 15t-40.5 -0.5t-40 -30.5z" />
    <glyph glyph-name="ugrave" unicode="&#xf9;" 
d="M323 405l-202 54v22l202 -54v-22zM50 385h-20v-192q0 -40 15 -75t41.5 -61.5t61.5 -41.5t75 -15q57 0 103 29.5t69 77.5v-107h20v385h-20v-192q0 -36 -13.5 -67.5t-37 -55t-54.5 -37t-67 -13.5t-67.5 13.5t-55 37t-37 55t-13.5 67.5v192z" />
    <glyph glyph-name="uacute" unicode="&#xfa;" 
d="M50 193q0 -36 13.5 -67.5t37 -55t55 -37t67.5 -13.5t67 13.5t54.5 37t37 55t13.5 67.5v192h20v-385h-20v107q-23 -48 -69 -77.5t-103 -29.5q-40 0 -75 15t-61.5 41.5t-41.5 61.5t-15 75v192h20v-192zM121 427l202 54v-22l-202 -54v22z" />
    <glyph glyph-name="yacute" unicode="&#xfd;" 
d="M121 427l202 54v-22l-202 -54v22zM100 -180q56 -50 122 -50q36 0 67.5 13.5t55 37t37 54.5t13.5 67v164q-24 -48 -70 -77t-103 -29q-40 0 -75 15t-61 41t-41 61t-15 75v193h20v-193q0 -36 13.5 -67t37 -54.5t54.5 -37t67 -13.5t67.5 13.5t55 37t37 54.5t13.5 67v193h20
v-443q0 -40 -15 -75t-41.5 -61t-61.5 -41t-75 -15q-39 0 -74 14.5t-62 40.5z" />
    <glyph glyph-name="yen" unicode="&#xa5;" horiz-adv-x="571" 
d="M235 337h28l-233 413h23l232 -408l232 408h24l-235 -413h29v-20h-40v-20h40v-20h-40v-277h-20v277h-40v20h40v20h-40v20z" />
    <glyph glyph-name="endash" unicode="&#x2013;" horiz-adv-x="360" 
d="M30 365v20h300v-20h-300z" />
    <glyph glyph-name="emdash" unicode="&#x2014;" 
d="M415 385v-20h-385v20h385z" />
    <glyph glyph-name="less" unicode="&#x3c;" horiz-adv-x="346" 
d="M316 551l-258 -258l258 -258l-14 -15l-272 273l272 272z" />
    <glyph glyph-name="greater" unicode="&#x3e;" horiz-adv-x="346" 
d="M44 565l272 -272l-272 -273l-14 15l258 258l-258 258z" />
    <glyph glyph-name="at" unicode="@" horiz-adv-x="810" 
d="M780 192q0 -39 -8 -73t-21.5 -59.5t-32 -40t-39.5 -14.5t-39.5 8t-32 21.5t-21.5 32t-8 39.5q-24 -48 -70 -77t-103 -29q-40 0 -75 15t-61 41t-41 61t-15 75t15 75t41 61.5t61 41.5t75 15q57 0 103 -29.5t70 -77.5v107h20v-279q0 -34 23.5 -57.5t57.5 -23.5q17 0 31.5 13
t25.5 36t17.5 53t6.5 65q0 73 -28 138t-76 113t-113 76t-138 28q-74 0 -138.5 -28t-112.5 -76t-76 -113t-28 -138q0 -74 28 -138.5t76 -112.5t112.5 -76t138.5 -28q48 0 91.5 11.5t81.5 33.5v-23q-39 -20 -82.5 -31t-90.5 -11q-78 0 -146 29.5t-119 80.5t-80.5 119
t-29.5 146t29.5 146t80.5 119t119 80.5t146 29.5t146 -29.5t119 -80.5t80.5 -119t29.5 -146zM233 192q0 -36 13.5 -67t37 -54.5t54.5 -37t67 -13.5t67.5 13.5t55 37t37 54.5t13.5 67q-2 37 -16 68.5t-37.5 55t-54.5 36.5t-65 13q-36 0 -67 -13.5t-54.5 -37t-37 -55
t-13.5 -67.5z" />
    <glyph glyph-name="quotesinglbase" unicode="&#x201a;" horiz-adv-x="80" 
d="M50 -100h-20v150h20v-150z" />
    <glyph glyph-name="quotedblbase" unicode="&#x201e;" horiz-adv-x="120" 
d="M50 -100h-20v150h20v-150zM90 -100h-20v150h20v-150z" />
    <glyph glyph-name="Oslash" unicode="&#xd8;" horiz-adv-x="810" 
d="M677 633q48 -51 75.5 -117t27.5 -141q0 -78 -29.5 -146t-80.5 -119t-119 -80.5t-146 -29.5q-75 0 -141 27.5t-117 75.5l-103 -103l-14 14l103 103q-48 51 -75.5 117t-27.5 141q0 78 29.5 146t80.5 119t119 80.5t146 29.5q75 0 141 -27.5t117 -75.5l103 103l14 -14z
M760 375q0 71 -26 133.5t-71 110.5l-502 -502q48 -45 110 -71t134 -26q73 0 138 28t113 76t76 112.5t28 138.5zM50 375q0 -72 26 -134t71 -110l502 502q-48 45 -110.5 71t-133.5 26q-74 0 -138.5 -28t-112.5 -76t-76 -113t-28 -138z" />
    <glyph glyph-name="oslash" unicode="&#xf8;" 
d="M366 322q23 -26 36 -58.5t13 -70.5q0 -40 -15 -75t-41 -61.5t-61 -41.5t-75 -15q-38 0 -70.5 13t-58.5 36l-49 -49l-15 15l49 49q-23 26 -36 58.5t-13 70.5q0 40 15 75t41.5 61t61.5 41t75 15q38 0 70.5 -13t58.5 -36l49 49l14 -14zM50 193q0 -33 11.5 -62.5t31.5 -52.5
l244 243q-23 20 -52 32t-62 12q-36 0 -67.5 -13.5t-55 -37t-37 -54.5t-13.5 -67zM395 193q0 33 -12 62t-32 52l-243 -244q23 -20 52.5 -31.5t62.5 -11.5q36 0 67 13.5t54.5 37t37 55t13.5 67.5z" />
    <glyph glyph-name="Lslash" unicode="&#x141;" horiz-adv-x="598" 
d="M168 278v472h20v-461l172 99l10 -17l-182 -104v-247h380v-20h-400v255l-128 -73l-10 17z" />
    <glyph glyph-name="lslash" unicode="&#x142;" horiz-adv-x="400" 
d="M168 278v472h20v-461l172 99l10 -17l-182 -104v-267h-20v255l-128 -73l-10 17z" />
    <glyph glyph-name="florin" unicode="&#x192;" horiz-adv-x="317" 
d="M120 -57q0 -40 -15 -75t-41 -61.5t-61 -41.5t-75 -15v20q36 0 67 13.5t54.5 37t37 55t13.5 67.5v614q0 40 15 75t41 61.5t61 41.5t75 15v-20q-36 0 -67 -13.5t-54.5 -37t-37 -55t-13.5 -67.5v-614zM25 395h170v-20h-170v20z" />
    <glyph glyph-name="dotaccent" unicode="&#x2d9;" horiz-adv-x="100" 
d="M30 750h40v-40h-40v40z" />
    <glyph glyph-name="bullet" unicode="&#x2022;" horiz-adv-x="262" 
d="M30 375q0 21 8 39.5t21.5 32t32 21.5t39.5 8t39.5 -8t32 -21.5t21.5 -32t8 -39.5t-8 -39.5t-21.5 -32t-32 -21.5t-39.5 -8t-39.5 8t-32 21.5t-21.5 32t-8 39.5z" />
    <glyph glyph-name="cent" unicode="&#xa2;" horiz-adv-x="419" 
d="M187 16q31 -6 62.5 -0.5t57.5 20.5l11 -18q-30 -17 -65.5 -23t-70.5 2l-17 -63l-20 5l17 63q-37 12 -65 36t-44.5 55.5t-21 68t5.5 74.5q10 37 32.5 66.5t53 48t66.5 25t74 -1.5l17 62l19 -5l-17 -63q35 -11 62.5 -33.5t44.5 -52.5l-17 -10q-16 26 -40 46t-55 31zM56 231
q-9 -33 -5 -65.5t19 -61t40 -50t57 -33.5l91 333q-34 7 -66.5 1t-59.5 -22.5t-47 -42.5t-29 -59z" />
    <glyph glyph-name="mu" unicode="&#xb5;" 
d="M30 385h20v-192q0 -36 13.5 -67.5t37 -55t55 -37t67.5 -13.5t67 13.5t54.5 37t37 55t13.5 67.5v192h20v-385h-20v107q-23 -48 -69 -77.5t-103 -29.5t-103.5 29.5t-69.5 77.5v-257h-20v535z" />
    <glyph glyph-name="brokenbar" unicode="&#xa6;" horiz-adv-x="80" 
d="M30 325h20v-425h-20v425zM50 425h-20v425h20v-425z" />
    <glyph glyph-name="Eth" unicode="&#xd0;" horiz-adv-x="685" 
d="M130 365h-100v20h100v365h150q78 0 146 -29.5t119 -80.5t80.5 -119t29.5 -146t-29.5 -146t-80.5 -119t-119 -80.5t-146 -29.5h-150v365zM150 365v-345h130q73 0 138 28t113 76t76 112.5t28 138.5q0 73 -28 138t-76 113t-113 76t-138 28h-130v-345h203v-20h-203z" />
    <glyph glyph-name="eth" unicode="&#xf0;" horiz-adv-x="531" 
d="M219 574l49 84l-53 92h23l41 -72l42 72h23l-53 -92l178 -305q24 -42 29.5 -88.5t-6 -90t-39.5 -81t-70 -61.5q-42 -25 -88.5 -30.5t-90 6t-81 39.5t-61.5 70t-29.5 88.5t6 90t39 81t69.5 61.5q31 18 65 25.5t67.5 5.5t65.5 -13t59 -31l-125 213l-37 -64h-23zM451 343
q-22 39 -56.5 64.5t-74 36t-82 5t-81.5 -27.5q-39 -23 -64 -57t-35.5 -74t-5.5 -82t27 -81t56.5 -64.5t74.5 -36t82 -5.5t81 28q39 22 64.5 56.5t36 74.5t5 82t-27.5 81z" />
    <glyph glyph-name="Thorn" unicode="&#xde;" 
d="M30 750h20v-183h173q40 0 75 -15t61 -41t41 -61t15 -75t-15 -75t-41 -61.5t-61 -41.5t-75 -15h-173v-182h-20v750zM50 547v-345h173q36 0 67 13.5t54.5 37t37 55t13.5 67.5t-13.5 67t-37 54.5t-54.5 37t-67 13.5h-173z" />
    <glyph glyph-name="thorn" unicode="&#xfe;" 
d="M30 200v500h20v-422q23 48 69 77.5t103 29.5q40 0 75 -15t61.5 -41.5t41.5 -61.5t15 -75t-15 -75t-41.5 -61t-61.5 -41t-75 -15q-57 0 -103 28.5t-69 76.5v-355h-20v442v8zM50 192q0 -36 13.5 -67t37 -54.5t54.5 -37t67 -13.5t67.5 13.5t55 37t37 54.5t13.5 67
t-13.5 67.5t-37 55t-55 37t-67.5 13.5q-35 0 -66 -13t-54 -35.5t-37 -53t-15 -64.5v-7z" />
    <glyph glyph-name="germandbls" unicode="&#xdf;" horiz-adv-x="526" 
d="M131 20h135q43 0 81.5 16.5t67 45t45 66.5t16.5 82q0 43 -16.5 81.5t-45 67t-67 45t-81.5 16.5v20q29 1 54 12t43 29t28 42.5t10 51.5q0 28 -10.5 52.5t-29 43t-43 29t-52.5 10.5t-52.5 -10.5t-43 -29t-29 -43t-10.5 -52.5v-494q0 -21 -8 -39.5t-21.5 -32t-32 -21.5
t-39.5 -8v20q34 0 57.5 23.5t23.5 57.5v494q0 32 12 60.5t33 49.5t49.5 33t60.5 12t60.5 -12t49.5 -33t33 -49.5t12 -60.5q0 -49 -26.5 -87.5t-68.5 -55.5q37 -10 68 -31t53.5 -50.5t35.5 -65t13 -75.5q0 -48 -18 -89.5t-49.5 -73t-73 -49.5t-89.5 -18h-135v20z" />
    <glyph glyph-name="circumflex" unicode="&#x2c6;" horiz-adv-x="199" 
d="M100 750l69 -70h-28l-41 41l-41 -41h-29z" />
    <glyph glyph-name="Zcaron" unicode="&#x17d;" horiz-adv-x="385" 
d="M326 730h-296v20h325l-295 -730h295v-20h-325zM123 840h29l41 -41l41 41h28l-69 -70z" />
    <glyph glyph-name="zcaron" unicode="&#x17e;" horiz-adv-x="275" 
d="M212 365h-182v20h215l-183 -365h183v-20h-215zM68 476h29l41 -41l41 41h28l-69 -70z" />
    <glyph glyph-name="Scaron" unicode="&#x160;" horiz-adv-x="393" 
d="M126 404q-35 20 -57.5 50.5t-32 66t-5 73.5t24.5 73q20 34 50.5 57t66 32.5t73 5t72.5 -24.5l45 -26v-23l-55 32q-31 18 -64.5 22t-65.5 -4.5t-59.5 -29t-45.5 -51.5q-17 -30 -21.5 -63t3 -64.5t26.5 -58.5t48 -46l138 -79q34 -20 57 -50.5t32.5 -66t5 -73t-24.5 -72.5
t-50.5 -58t-66 -32.5t-73.5 -5t-72 24.5l-45 25v23l55 -31q31 -18 64.5 -22t65.5 5t59.5 29.5t45.5 51.5q17 30 21.5 63t-3 64t-26.5 58t-48 46l-138 79v0zM127 853h29l41 -41l41 41h28l-69 -70z" />
    <glyph glyph-name="scaron" unicode="&#x161;" horiz-adv-x="239" 
d="M158 182q18 -11 30 -27t17 -34.5t2.5 -38.5t-12.5 -38t-26 -30t-34.5 -17t-38.5 -3t-38 13l-27 15v23l37 -20q29 -17 61 -8.5t49 37.5t9 60t-36 48l-69 41q-18 10 -30.5 26t-17.5 35t-2.5 39t13.5 38q10 18 26 30t34.5 17t38.5 2.5t38 -13.5l27 -15v-23l-37 21
q-15 9 -30.5 11t-30.5 -2t-28 -13.5t-21 -24.5q-17 -30 -8.5 -61.5t38.5 -48.5l66 -39v0zM50 482h29l41 -41l41 41h28l-69 -70z" />
    <glyph glyph-name="Acircumflex" unicode="&#xc2;" horiz-adv-x="666" 
d="M538 190h-410l-77 -190h-21l303 749l303 -749h-21zM136 210h394l-197 485zM333 820l69 -70h-28l-41 41l-41 -41h-29z" />
    <glyph glyph-name="Ecircumflex" unicode="&#xca;" horiz-adv-x="460" 
d="M430 20v-20h-400v750h400v-20h-380v-345h360v-20h-360v-345h380zM230 840l69 -70h-28l-41 41l-41 -41h-29z" />
    <glyph glyph-name="Icircumflex" unicode="&#xce;" horiz-adv-x="199" 
d="M89 750h20v-750h-20v750zM100 840l69 -70h-28l-41 41l-41 -41h-29z" />
    <glyph glyph-name="Ocircumflex" unicode="&#xd4;" horiz-adv-x="810" 
d="M30 375q0 78 29.5 146t80.5 119t119 80.5t146 29.5t146 -29.5t119 -80.5t80.5 -119t29.5 -146t-29.5 -146t-80.5 -119t-119 -80.5t-146 -29.5t-146 29.5t-119 80.5t-80.5 119t-29.5 146zM50 375q0 -74 28 -138.5t76 -112.5t112.5 -76t138.5 -28q73 0 138 28t113 76
t76 112.5t28 138.5q0 73 -28 138t-76 113t-113 76t-138 28q-74 0 -138.5 -28t-112.5 -76t-76 -113t-28 -138zM405 840l69 -70h-28l-41 41l-41 -41h-29z" />
    <glyph glyph-name="Ucircumflex" unicode="&#xdb;" horiz-adv-x="510" 
d="M460 750h20v-525q0 -47 -17.5 -87.5t-48.5 -71.5t-72 -48.5t-87 -17.5q-47 0 -87.5 17.5t-71.5 48.5t-48.5 71.5t-17.5 87.5v525h20v-525q0 -42 16 -79.5t44 -65.5t65.5 -44t79.5 -16t79.5 16t65.5 44t44 65.5t16 79.5v525zM255 840l69 -70h-28l-41 41l-41 -41h-29z" />
    <glyph glyph-name="acircumflex" unicode="&#xe2;" 
d="M395 106q-24 -48 -70 -77t-103 -29q-40 0 -75 15t-61 41t-41 61t-15 75t15 75t41 61.5t61 41.5t75 15q57 0 103 -29.5t70 -77.5v107h20v-193v-192h-20v106zM50 192q0 -36 13.5 -67t37 -54.5t54.5 -37t67 -13.5t67.5 13.5t55 37t37 54.5t13.5 67q-2 37 -16 68.5t-37.5 55
t-54.5 36.5t-65 13q-36 0 -67 -13.5t-54.5 -37t-37 -55t-13.5 -67.5zM223 476l69 -70h-28l-41 41l-41 -41h-29z" />
    <glyph glyph-name="ecircumflex" unicode="&#xea;" horiz-adv-x="397" 
d="M367 321l-259 -258q25 -23 56.5 -33.5t63.5 -10t62.5 13.5t54.5 37l14 -14q-28 -29 -63.5 -43t-72 -14t-72.5 14.5t-64 42.5t-42 63.5t-14 72.5t14 72t42 64q28 28 64 42.5t72.5 14.5t72 -14.5t63.5 -42.5zM101 314q-24 -24 -37 -54.5t-14 -62.5t10 -63.5t34 -56.5
l244 244q-26 23 -57 33.5t-63 9.5t-62.5 -13.5t-54.5 -36.5zM221 476l69 -70h-28l-41 41l-41 -41h-29z" />
    <glyph glyph-name="icircumflex" unicode="&#xee;" horiz-adv-x="199" 
d="M89 0h20v385h-20v-385zM100 475l69 -70h-28l-41 41l-41 -41h-29z" />
    <glyph glyph-name="ocircumflex" unicode="&#xf4;" 
d="M30 192q0 40 15 75t41 61.5t61 41.5t75 15t75 -15t61.5 -41.5t41.5 -61.5t15 -75t-15 -75t-41.5 -61t-61.5 -41t-75 -15t-75 15t-61 41t-41 61t-15 75zM50 192q0 -36 13.5 -67t37 -54.5t54.5 -37t67 -13.5t67.5 13.5t55 37t37 54.5t13.5 67t-13.5 67.5t-37 55t-55 37
t-67.5 13.5t-67 -13.5t-54.5 -37t-37 -55t-13.5 -67.5zM223 476l69 -70h-28l-41 41l-41 -41h-29z" />
    <glyph glyph-name="ucircumflex" unicode="&#xfb;" 
d="M50 193q0 -36 13.5 -67.5t37 -55t55 -37t67.5 -13.5t67 13.5t54.5 37t37 55t13.5 67.5v192h20v-385h-20v107q-23 -48 -69 -77.5t-103 -29.5q-40 0 -75 15t-61.5 41.5t-41.5 61.5t-15 75v192h20v-192zM223 476l69 -70h-28l-41 41l-41 -41h-29z" />
    <glyph glyph-name="backslash" unicode="\" horiz-adv-x="333" 
d="M30 850h21l252 -950h-20z" />
    <glyph glyph-name="ordfeminine" unicode="&#xaa;" horiz-adv-x="262" 
d="M212 588q-14 -18 -35 -29t-46 -11q-21 0 -39.5 8t-32 21.5t-21.5 32t-8 39.5t8 39.5t21.5 32t32 21.5t39.5 8q25 0 46 -11t35 -30v41h20v-202h-20v40zM50 649q0 -34 23.5 -57.5t57.5 -23.5q33 0 56 23t25 58q0 34 -23.5 57.5t-57.5 23.5t-57.5 -23.5t-23.5 -57.5z" />
    <glyph glyph-name="ordmasculine" unicode="&#xba;" horiz-adv-x="262" 
d="M30 649q0 21 8 39.5t21.5 32t32 21.5t39.5 8t39.5 -8t32 -21.5t21.5 -32t8 -39.5t-8 -39.5t-21.5 -32t-32 -21.5t-39.5 -8t-39.5 8t-32 21.5t-21.5 32t-8 39.5zM50 649q0 -34 23.5 -57.5t57.5 -23.5t57.5 23.5t23.5 57.5t-23.5 57.5t-57.5 23.5t-57.5 -23.5t-23.5 -57.5z
" />
    <glyph glyph-name="degree" unicode="&#xb0;" horiz-adv-x="262" 
d="M30 649q0 21 8 39.5t21.5 32t32 21.5t39.5 8t39.5 -8t32 -21.5t21.5 -32t8 -39.5v-98q0 -21 -8 -39.5t-21.5 -32t-32 -21.5t-39.5 -8t-39.5 8t-32 21.5t-21.5 32t-8 39.5v98zM212 649q0 34 -23.5 57.5t-57.5 23.5t-57.5 -23.5t-23.5 -57.5v-98q0 -34 23.5 -57.5
t57.5 -23.5t57.5 23.5t23.5 57.5v98z" />
    <glyph glyph-name="Ydieresis" unicode="&#x178;" horiz-adv-x="571" 
d="M275 317l-245 433h23l232 -408l232 408h24l-246 -433v-317h-20v317zM240 785q0 6 4.5 10.5t10.5 4.5t10.5 -4.5t4.5 -10.5t-4.5 -10.5t-10.5 -4.5t-10.5 4.5t-4.5 10.5zM300 785q0 6 4.5 10.5t10.5 4.5t10.5 -4.5t4.5 -10.5t-4.5 -10.5t-10.5 -4.5t-10.5 4.5t-4.5 10.5z
" />
    <glyph glyph-name="Adieresis" unicode="&#xc4;" horiz-adv-x="666" 
d="M538 190h-410l-77 -190h-21l303 749l303 -749h-21zM136 210h394l-197 485zM288 785q0 6 4.5 10.5t10.5 4.5t10.5 -4.5t4.5 -10.5t-4.5 -10.5t-10.5 -4.5t-10.5 4.5t-4.5 10.5zM348 785q0 6 4.5 10.5t10.5 4.5t10.5 -4.5t4.5 -10.5t-4.5 -10.5t-10.5 -4.5t-10.5 4.5
t-4.5 10.5z" />
    <glyph glyph-name="Edieresis" unicode="&#xcb;" horiz-adv-x="460" 
d="M430 20v-20h-400v750h400v-20h-380v-345h360v-20h-360v-345h380zM185 785q0 6 4.5 10.5t10.5 4.5t10.5 -4.5t4.5 -10.5t-4.5 -10.5t-10.5 -4.5t-10.5 4.5t-4.5 10.5zM245 785q0 6 4.5 10.5t10.5 4.5t10.5 -4.5t4.5 -10.5t-4.5 -10.5t-10.5 -4.5t-10.5 4.5t-4.5 10.5z" />
    <glyph glyph-name="Idieresis" unicode="&#xcf;" horiz-adv-x="150" 
d="M65 750h20v-750h-20v750zM30 785q0 6 4.5 10.5t10.5 4.5t10.5 -4.5t4.5 -10.5t-4.5 -10.5t-10.5 -4.5t-10.5 4.5t-4.5 10.5zM90 785q0 6 4.5 10.5t10.5 4.5t10.5 -4.5t4.5 -10.5t-4.5 -10.5t-10.5 -4.5t-10.5 4.5t-4.5 10.5z" />
    <glyph glyph-name="Odieresis" unicode="&#xd6;" horiz-adv-x="810" 
d="M30 375q0 78 29.5 146t80.5 119t119 80.5t146 29.5t146 -29.5t119 -80.5t80.5 -119t29.5 -146t-29.5 -146t-80.5 -119t-119 -80.5t-146 -29.5t-146 29.5t-119 80.5t-80.5 119t-29.5 146zM50 375q0 -74 28 -138.5t76 -112.5t112.5 -76t138.5 -28q73 0 138 28t113 76
t76 112.5t28 138.5q0 73 -28 138t-76 113t-113 76t-138 28q-74 0 -138.5 -28t-112.5 -76t-76 -113t-28 -138zM360 785q0 6 4.5 10.5t10.5 4.5t10.5 -4.5t4.5 -10.5t-4.5 -10.5t-10.5 -4.5t-10.5 4.5t-4.5 10.5zM420 785q0 6 4.5 10.5t10.5 4.5t10.5 -4.5t4.5 -10.5
t-4.5 -10.5t-10.5 -4.5t-10.5 4.5t-4.5 10.5z" />
    <glyph glyph-name="Udieresis" unicode="&#xdc;" horiz-adv-x="510" 
d="M460 750h20v-525q0 -47 -17.5 -87.5t-48.5 -71.5t-72 -48.5t-87 -17.5q-47 0 -87.5 17.5t-71.5 48.5t-48.5 71.5t-17.5 87.5v525h20v-525q0 -42 16 -79.5t44 -65.5t65.5 -44t79.5 -16t79.5 16t65.5 44t44 65.5t16 79.5v525zM210 785q0 6 4.5 10.5t10.5 4.5t10.5 -4.5
t4.5 -10.5t-4.5 -10.5t-10.5 -4.5t-10.5 4.5t-4.5 10.5zM270 785q0 6 4.5 10.5t10.5 4.5t10.5 -4.5t4.5 -10.5t-4.5 -10.5t-10.5 -4.5t-10.5 4.5t-4.5 10.5z" />
    <glyph glyph-name="adieresis" unicode="&#xe4;" 
d="M395 106q-24 -48 -70 -77t-103 -29q-40 0 -75 15t-61 41t-41 61t-15 75t15 75t41 61.5t61 41.5t75 15q57 0 103 -29.5t70 -77.5v107h20v-193v-192h-20v106zM50 192q0 -36 13.5 -67t37 -54.5t54.5 -37t67 -13.5t67.5 13.5t55 37t37 54.5t13.5 67q-2 37 -16 68.5t-37.5 55
t-54.5 36.5t-65 13q-36 0 -67 -13.5t-54.5 -37t-37 -55t-13.5 -67.5zM177 421q0 6 4.5 10.5t10.5 4.5t10.5 -4.5t4.5 -10.5t-4.5 -10.5t-10.5 -4.5t-10.5 4.5t-4.5 10.5zM237 421q0 6 4.5 10.5t10.5 4.5t10.5 -4.5t4.5 -10.5t-4.5 -10.5t-10.5 -4.5t-10.5 4.5t-4.5 10.5z
" />
    <glyph glyph-name="edieresis" unicode="&#xeb;" horiz-adv-x="397" 
d="M367 321l-259 -258q25 -23 56.5 -33.5t63.5 -10t62.5 13.5t54.5 37l14 -14q-28 -29 -63.5 -43t-72 -14t-72.5 14.5t-64 42.5t-42 63.5t-14 72.5t14 72t42 64q28 28 64 42.5t72.5 14.5t72 -14.5t63.5 -42.5zM101 314q-24 -24 -37 -54.5t-14 -62.5t10 -63.5t34 -56.5
l244 244q-26 23 -57 33.5t-63 9.5t-62.5 -13.5t-54.5 -36.5zM153 421q0 6 4.5 10.5t10.5 4.5t10.5 -4.5t4.5 -10.5t-4.5 -10.5t-10.5 -4.5t-10.5 4.5t-4.5 10.5zM213 421q0 6 4.5 10.5t10.5 4.5t10.5 -4.5t4.5 -10.5t-4.5 -10.5t-10.5 -4.5t-10.5 4.5t-4.5 10.5z" />
    <glyph glyph-name="idieresis" unicode="&#xef;" horiz-adv-x="150" 
d="M65 385h20v-385h-20v385zM30 420q0 6 4.5 10.5t10.5 4.5t10.5 -4.5t4.5 -10.5t-4.5 -10.5t-10.5 -4.5t-10.5 4.5t-4.5 10.5zM90 420q0 6 4.5 10.5t10.5 4.5t10.5 -4.5t4.5 -10.5t-4.5 -10.5t-10.5 -4.5t-10.5 4.5t-4.5 10.5z" />
    <glyph glyph-name="odieresis" unicode="&#xf6;" 
d="M30 192q0 40 15 75t41 61.5t61 41.5t75 15t75 -15t61.5 -41.5t41.5 -61.5t15 -75t-15 -75t-41.5 -61t-61.5 -41t-75 -15t-75 15t-61 41t-41 61t-15 75zM50 192q0 -36 13.5 -67t37 -54.5t54.5 -37t67 -13.5t67.5 13.5t55 37t37 54.5t13.5 67t-13.5 67.5t-37 55t-55 37
t-67.5 13.5t-67 -13.5t-54.5 -37t-37 -55t-13.5 -67.5zM177 421q0 6 4.5 10.5t10.5 4.5t10.5 -4.5t4.5 -10.5t-4.5 -10.5t-10.5 -4.5t-10.5 4.5t-4.5 10.5zM237 421q0 6 4.5 10.5t10.5 4.5t10.5 -4.5t4.5 -10.5t-4.5 -10.5t-10.5 -4.5t-10.5 4.5t-4.5 10.5z" />
    <glyph glyph-name="udieresis" unicode="&#xfc;" 
d="M50 193q0 -36 13.5 -67.5t37 -55t55 -37t67.5 -13.5t67 13.5t54.5 37t37 55t13.5 67.5v192h20v-385h-20v107q-23 -48 -69 -77.5t-103 -29.5q-40 0 -75 15t-61.5 41.5t-41.5 61.5t-15 75v192h20v-192zM177 421q0 6 4.5 10.5t10.5 4.5t10.5 -4.5t4.5 -10.5t-4.5 -10.5
t-10.5 -4.5t-10.5 4.5t-4.5 10.5zM237 421q0 6 4.5 10.5t10.5 4.5t10.5 -4.5t4.5 -10.5t-4.5 -10.5t-10.5 -4.5t-10.5 4.5t-4.5 10.5z" />
    <glyph glyph-name="ydieresis" unicode="&#xff;" 
d="M100 -180q56 -50 122 -50q36 0 67.5 13.5t55 37t37 54.5t13.5 67v164q-24 -48 -70 -77t-103 -29q-40 0 -75 15t-61 41t-41 61t-15 75v193h20v-193q0 -36 13.5 -67t37 -54.5t54.5 -37t67 -13.5t67.5 13.5t55 37t37 54.5t13.5 67v193h20v-443q0 -40 -15 -75t-41.5 -61
t-61.5 -41t-75 -15q-39 0 -74 14.5t-62 40.5zM177 421q0 6 4.5 10.5t10.5 4.5t10.5 -4.5t4.5 -10.5t-4.5 -10.5t-10.5 -4.5t-10.5 4.5t-4.5 10.5zM237 421q0 6 4.5 10.5t10.5 4.5t10.5 -4.5t4.5 -10.5t-4.5 -10.5t-10.5 -4.5t-10.5 4.5t-4.5 10.5z" />
    <glyph glyph-name="T" unicode="T" horiz-adv-x="510" 
d="M480 730h-215v-730h-20v730h-215v20h450v-20z" />
    <glyph glyph-name="bracketright" unicode="]" horiz-adv-x="252" 
d="M222 -100h-192v20h172v910h-172v20h192v-950z" />
    <glyph glyph-name="parenright" unicode=")" horiz-adv-x="252" 
d="M202 657q0 36 -13.5 67.5t-37 55t-54.5 37t-67 13.5v20q40 0 75 -15t61 -41.5t41 -61.5t15 -75v-564q0 -40 -15 -75t-41 -61.5t-61 -41.5t-75 -15v20q36 0 67 13.5t54.5 37t37 55t13.5 67.5v564z" />
    <glyph glyph-name="percent" unicode="%" horiz-adv-x="840" 
d="M425 192q0 40 15 75t41 61.5t61 41.5t75 15t75 -15t61.5 -41.5t41.5 -61.5t15 -75t-15 -75t-41.5 -61t-61.5 -41t-75 -15t-75 15t-61 41t-41 61t-15 75zM415 558q0 -40 -15 -75t-41 -61.5t-61 -41.5t-75 -15t-75 15t-61.5 41.5t-41.5 61.5t-15 75t15 75t41.5 61t61.5 41
t75 15t75 -15t61 -41t41 -61t15 -75zM395 558q0 36 -13.5 67t-37 54.5t-54.5 37t-67 13.5t-67.5 -13.5t-55 -37t-37 -54.5t-13.5 -67t13.5 -67.5t37 -55t55 -37t67.5 -13.5t67 13.5t54.5 37t37 55t13.5 67.5zM445 192q0 -36 13.5 -67t37 -54.5t54.5 -37t67 -13.5t67.5 13.5
t55 37t37 54.5t13.5 67t-13.5 67.5t-37 55t-55 37t-67.5 13.5t-67 -13.5t-54.5 -37t-37 -55t-13.5 -67.5zM330 0h-20l199 750h21z" />
    <glyph glyph-name="space" unicode=" " horiz-adv-x="500" 
 />
    <glyph glyph-name="j" unicode="j" horiz-adv-x="88" 
d="M54 -58q0 -40 -15 -75t-41.5 -61t-61.5 -41t-75 -15v20q36 0 67.5 13.5t55 37t37 54.5t13.5 67v443h20v-443zM44 429l14 -14l-14 -14l-14 14z" />
    <glyph glyph-name="apple" unicode="&#xf8ff;" horiz-adv-x="739" 
d="M720 700l-85 -175h-175l-90 -350l-90 350h-175l-85 175h700zM370 175l100 305h140l-240 -480l-240 480h140z" />
    </font>
</defs>
</svg>
